# xmcd
#
# Track frame offsets:
# 150
# 14419
# 28474
# 45229
# 60341
# 79381
# 96598
# 109430
# 120304
# 134728
# 152514
# 162100
# 177721
# 193666
#
# Disc length: 2874 seconds
#
#
# Revision: 0
# Processed by: cddbd v1.5.2PL0 Copyright (c) Steve Scherf et al.
# Submitted via: FreeRIP 2.51 
#
DISCID=c20b380e
DTITLE=Adam Brand - Blame it on Eve
DYEAR=2008
DGENRE=Country
TTITLE0=Get Down on the Road
TTITLE1=Proof Enough
TTITLE2=Blame it on Eve
TTITLE3=Nothing Like a Good Day
TTITLE4=Comin' from - Khe Sanh
TTITLE5=Not So Strong
TTITLE6=Down Home
TTITLE7=Wasted Day
TTITLE8=Better Than This
TTITLE9=Waiting on Sunshine
TTITLE10=Simple Man
TTITLE11=What We Do To Ourselves
TTITLE12=Right Here With You
TTITLE13=Angles
EXTD=Australian country music artist
EXTT0=
EXTT1=
EXTT2=
EXTT3=
EXTT4=
EXTT5=
EXTT6=
EXTT7=
EXTT8=
EXTT9=
EXTT10=
EXTT11=
EXTT12=
EXTT13=
PLAYORDER=
